<?xml version="1.0" encoding="UTF-8"?>
<svg width="51px" height="46px" viewBox="0 0 51 46" version="1.1" xmlns="http://www.w3.org/2000/svg" xmlns:xlink="http://www.w3.org/1999/xlink">
    <!-- Generator: Sketch 44.1 (41455) - http://www.bohemiancoding.com/sketch -->
    <title>Cow</title>
    <desc>Created with Sketch.</desc>
    <defs></defs>
    <g id="iOS" stroke="none" stroke-width="1" fill="none" fill-rule="evenodd">
        <g id="Restaurant" transform="translate(-312.000000, -327.000000)">
            <g id="Cow" transform="translate(312.000000, 327.000000)">
                <path d="M10.2806324,17.1475771 C10.0782451,17.7361454 8.29022134,18.1181498 7.8624664,18.1564097 C5.79928458,18.3425551 2.5181502,18.6478414 0.931909091,17.0163436 C-0.532980237,15.5101322 0.0389051383,12.9203524 1.50681818,11.6082159 C3.04467984,10.2342291 5.06411858,10.3020264 6.86242292,10.6273348 C7.90741897,10.8156608 8.94394862,11.1138106 9.93814625,11.4849119 C10.2520079,11.6018722 12.1017154,12.3294053 11.9940711,12.6422247 C11.9942727,12.6424229 10.583004,15.361652 10.583004,15.3634361 L10.2806324,17.1475771 Z M7.15411067,16.4660352 C10.80817,15.9284141 9.27373518,13.6928855 8.74458498,13.0953965 C8.21563636,12.4981057 6.96240711,12.1630837 6.36109091,12.0598018 C5.32516601,11.8813877 4.42994466,11.8171586 3.53250593,12.6422247 C2.67558498,13.4294273 2.32725296,14.9661674 3.16159684,15.8449559 C4.06548617,16.7978855 5.96155731,16.5921145 7.15411067,16.4660352 Z" id="Combined-Shape" fill="#9E5EDB" fill-rule="nonzero"></path>
                <path d="M40.1146245,22.2048238 L40.1146245,21.3105727 L39.6106719,18.1387665 C39.6026087,17.8420044 41.9721937,17.1951542 42.3068182,17.1828634 C43.3675375,17.1440088 44.4461976,17.1794934 45.4998617,17.3103304 C47.3138893,17.5349339 49.2613636,18.0406388 50.3146245,19.6406167 C51.3203123,21.1682379 51.0850672,23.5351982 49.2341502,24.4098238 C47.228419,25.3577974 44.1899881,24.1822467 42.2769842,23.4477753 C41.8804743,23.2959251 40.1301462,22.7626652 40.1146245,22.2048238 Z M47.4590277,22.7898238 C48.5201502,22.2736123 48.6503715,20.8669163 48.0702213,19.9566079 C47.462253,19.0030837 46.589004,18.8082159 45.54683,18.6710352 C44.9416838,18.5913436 43.6447115,18.5269163 42.9601423,18.8885022 C42.2755731,19.2500881 40.1376047,20.7269604 43.4624822,22.2048238 C44.5625099,22.6449119 46.3094111,23.3494493 47.4590277,22.7898238 Z" id="Combined-Shape" fill="#9E5EDB" fill-rule="nonzero"></path>
                <path d="M17.2325235,8.81408861 C17.2334073,8.81658692 17.2342921,8.81908602 17.2351779,8.8215859 L16.2605407,9.17057623 C15.670962,9.41494698 15.1420904,9.68626124 14.8162055,9.91189427 C14.2189178,10.3254386 13.2782063,11.2505487 11.9940711,12.6872247 C9.14452174,6.88440529 11.8741304,2.21689427 16.0277075,0.574889868 C16.7916996,0.275947137 19.5420711,-0.487070485 19.8456522,0.830814978 C19.9758735,1.8245815 18.2648538,2.73806167 17.7631186,3.83590308 C16.6626877,6.47365639 19.1501976,8.52422907 19.1501976,8.52422907 C18.7041229,8.43649373 17.979467,8.57672086 17.2325235,8.81408861 Z M17.2325235,8.81408861 C15.2135348,3.10676938 18.4513162,1.50522026 18.4513162,1.50522026 C14.1149051,2.94938326 15.9601779,9.27812775 15.9601779,9.27812775 L16.2605407,9.17057623 C16.5744825,9.04045247 16.9056373,8.91796828 17.2325235,8.81408861 Z" id="Combined-Shape" fill="#9E5EDB" fill-rule="nonzero"></path>
                <path d="M38.8361976,7.90988987 C38.9204585,6.709163 37.8498617,5.1095815 38.441502,4.2938326 C39.3413597,3.27270925 41.4005099,5.22118943 41.930668,5.83969163 C44.8056166,9.21429515 45.1077866,14.542533 39.812253,18.3370044 C39.812253,18.3369179 39.065308,16.1873538 38.1996047,14.8678414 C37.3339015,13.5483291 35.7812003,12.1927469 35.7806324,12.19163 C35.7457589,12.1218502 38.5416877,10.7458811 38.8361976,7.90988987 Z M36.6044941,12.8573128 L37.5097945,13.8508811 C37.5097945,13.8508811 42.4777589,8.82039648 39.3476087,5.53539648 C39.3472055,5.53539648 41.1307945,8.75834802 36.6044941,12.8573128 Z" id="Combined-Shape" fill="#9E5EDB" fill-rule="nonzero"></path>
                <path d="M20.7781991,24.2004528 C20.7444757,24.3022965 20.724747,24.3572907 20.724747,24.3572907 L14.156834,21.3347577 C14.156834,21.3347577 14.1570613,21.2752205 14.1603636,21.1671461 C13.3536771,20.9323674 12.6651764,20.814978 12.0948617,20.814978 C11.3537331,20.814978 10.5953853,21.0132159 9.81981818,21.4096916 C9.81981818,21.4096916 8.32186957,7.28068282 22.0009565,8.45702643 L33.090332,10.5462555 C33.090332,10.5462555 42.4902569,12.6372687 39.7114625,25.969163 C39.7114625,25.969163 39.4748752,25.1457563 38.0988142,24.7130403 C37.4656614,24.5139391 36.5653314,24.4156284 35.397824,24.4181083 C35.3907378,24.4356353 35.3869447,24.4447137 35.3869447,24.4447137 L33.8178263,24.6991671 C33.8138664,24.7038019 33.8099006,24.7084263 33.8059292,24.7130403 L31.7490119,25.2156784 C30.8422821,25.3691614 30.2295996,25.4081742 29.9109643,25.3327169 L27.750249,25.6831057 C27.750249,25.6831057 27.7526025,25.5894362 27.7622262,25.421425 C26.5087864,25.5169065 25.4523395,25.5012479 24.5928854,25.3744493 C23.6215182,25.2311398 22.3499561,24.8398076 20.7781991,24.2004528 Z M34.0090522,24.4613066 C34.5077412,24.4334151 34.9706652,24.4190157 35.397824,24.4181083 C35.5799378,23.967672 37.9370542,17.9371707 33.9819249,17.0153524 C28.5799309,15.756567 27.8523418,23.8481945 27.7622262,25.421425 C28.3580478,25.376038 28.9983811,25.3055381 29.6832264,25.2099254 C28.9638887,24.2700637 28.8368809,22.6702874 29.465502,21.1079736 C30.302668,19.0268722 32.162253,17.7993833 33.6186759,18.3663436 C35.0759051,18.9331057 35.5782451,21.0792291 34.7410791,23.1597357 C34.5463616,23.6437111 34.296381,24.0815081 34.0090522,24.4613066 Z M29.9109643,25.3327169 L33.8178263,24.6991671 C33.8831903,24.6226654 33.9469924,24.5433389 34.0090522,24.4613066 C33.8958871,24.4676359 33.7808802,24.47466 33.6640316,24.4823789 C32.2022327,24.8009822 30.8752977,25.0434978 29.6832264,25.2099254 C29.6846962,25.2118458 29.6861685,25.2137635 29.6876433,25.2156784 C29.7279291,25.2679873 29.8023695,25.3070001 29.9109643,25.3327169 Z M32.5301383,21.6555066 C33.0088933,21.6406388 33.3846403,21.2479295 33.3695217,20.7767181 C33.3542016,20.3061013 32.9540632,19.9373789 32.475913,19.9520485 C31.9973597,19.9669163 31.6214111,20.3602203 31.6367312,20.830837 C31.6518498,21.300859 32.0517866,21.6707709 32.5301383,21.6555066 Z M20.7781991,24.2004528 C21.1772506,22.9953265 23.535862,15.2302344 18.3533478,14.4 C14.5546486,13.7908754 14.1943786,20.0539236 14.1603636,21.1671461 C14.4019725,21.2374642 14.6541834,21.3183127 14.916996,21.4096916 C17.193835,22.6068961 19.1475694,23.5371498 20.7781991,24.2004528 Z" id="Combined-Shape" fill="#9E5EDB" fill-rule="nonzero"></path>
                <path d="M17.4367589,22.6982379 L15.6685944,21.6764053 C15.4785572,21.1448931 15.3672411,20.5465436 15.357249,19.9125991 C15.3217708,17.6754846 16.5629051,15.8421806 18.1297945,15.8189868 C19.6960791,15.7944053 20.994664,17.5890529 21.0297391,19.8271586 C21.0552964,21.447617 20.4107956,22.8563348 19.4580392,23.5187039 C19.216484,23.6866364 18.5427239,23.4131477 17.4367589,22.6982379 Z M19.1800316,18.6411013 C19.1800316,18.1702863 18.7919881,17.7888767 18.3134348,17.7888767 C17.8346798,17.7888767 17.4464348,18.1702863 17.4464348,18.6411013 C17.4464348,19.1115198 17.8346798,19.493326 18.3134348,19.493326 C18.7919881,19.493326 19.1800316,19.1119163 19.1800316,18.6411013 Z" id="Combined-Shape" fill="#9E5EDB"></path>
                <path d="M15.2174664,35.5350758 C15.1276329,35.5911768 15.0280336,35.6431571 14.9185546,35.6867661 C14.9736072,35.8246927 16.5018053,39.5368022 21.8350553,40.3749119 C27.2062395,41.219508 30.8859621,38.2716235 30.9714047,38.2024681 C30.8766638,38.1357061 30.7925423,38.0635995 30.7182073,37.990006 C30.6305452,37.9105056 30.5751387,37.8487689 30.5519878,37.8047957 C30.5436864,37.7943947 30.5355676,37.7840286 30.5276291,37.7737082 C28.2058522,39.6037712 25.3237821,40.2809272 21.881419,39.8051762 C17.055166,39.1379075 15.3201581,35.4845815 15.3201581,35.4845815 L15.2174664,35.5350758 Z M20.5235692,44.6140308 C1.82289723,42.2476652 1.81181028,22.6639427 10.61183,21.0171806 C15.9734822,20.0137004 18.1616443,24.1685683 24.0207984,25.3050661 C29.9845731,26.4615859 33.9027036,23.1028414 38.0639407,24.5682159 C45.3363794,27.1292511 45.4553123,47.7693833 20.5235692,44.6140308 Z M30.5276291,37.7737082 C30.5315963,37.7705813 30.5355618,37.7674509 30.5395257,37.7643172 C30.5395257,37.7755223 30.5436797,37.7890152 30.5519878,37.8047957 C30.6008946,37.8660719 30.6561395,37.9285573 30.7182073,37.990006 C30.7846071,38.0502236 30.869513,38.1206328 30.9729249,38.2012335 C30.9729249,38.2012335 30.9724171,38.2016487 30.9714047,38.2024681 C31.1578605,38.3338596 31.3854482,38.44455 31.6605178,38.5051322 L31.6972055,38.5108811 C31.8332727,38.5229736 31.9598656,38.4357489 31.9884901,38.3023348 C32.0199368,38.1572247 31.9223715,38.0123128 31.7723953,37.9796035 C31.0313834,37.8164537 30.7693281,37.1232159 30.7574348,37.0893172 C30.7066364,36.9487665 30.5487984,36.870859 30.4044664,36.9162555 C30.2587233,36.9620485 30.1819209,37.113304 30.2325178,37.2554405 C30.2392786,37.2752915 30.324383,37.5094833 30.5276291,37.7737082 Z M15.2174664,35.5350758 C15.6279421,35.2787339 15.8345253,34.9363585 15.8480988,34.9134581 C15.9232885,34.7851982 15.8767233,34.6202643 15.7424704,34.5425551 C15.6096285,34.4664317 15.4403004,34.5060793 15.365917,34.6327533 C15.3465652,34.6630837 14.9623518,35.2819824 14.2064229,35.2760352 C14.0534229,35.2742511 13.9320711,35.3951762 13.9356996,35.5438546 C13.9385217,35.6806388 14.0465692,35.7946256 14.1816285,35.8128634 L14.2187194,35.8160352 C14.4854523,35.8181901 14.7184987,35.7664549 14.9185546,35.6867661 C14.9175103,35.6841496 14.916996,35.6828194 14.916996,35.6828194 L15.2174664,35.5350758 Z" id="Combined-Shape" stroke="#9E5EDB" stroke-width="0.8" fill-rule="nonzero"></path>
                <path d="M32.414834,30.9782379 C31.2049447,31.5444053 30.056336,31.2859031 29.8497154,30.399978 C29.6426917,29.5142511 30.4564743,28.3373128 31.6661621,27.7705507 C32.8758498,27.2045815 34.0244585,27.4626872 34.2316838,28.3484141 C34.4381028,29.2345374 33.6251265,30.4118722 32.414834,30.9782379" id="Shape" fill="#9E5EDB"></path>
                <path d="M18.1787787,26.8088987 C18.8325059,27.9590749 18.6442292,29.1037004 17.7588854,29.3633921 C16.8737431,29.6244714 15.6261581,28.9028855 14.972834,27.752511 C14.3193083,26.6017401 14.5067787,25.458304 15.3919209,25.1970264 C16.2774664,24.9367401 17.5248498,25.6581278 18.1787787,26.8088987" id="Shape" fill="#9E5EDB"></path>
                <path d="M22.0952964,14.1157269 C22.0952964,14.1157269 20.3989921,11.1855727 23.6533162,10.3936123 C23.6533162,10.3936123 21.2450277,9.28506608 19.3007787,10.4588326 C19.3007787,10.4588326 20.5659012,8.08037445 23.8635652,8.69590308 C23.4696759,7.10226872 21.3937945,6.45403084 21.3937945,6.45403084 C21.3937945,6.45403084 23.7537036,5.89123348 25.8858261,8.1073348 C25.8858261,8.1073348 25.920498,7.25788546 26.7643162,6.62055066 C26.7643162,6.62055066 27.5704387,7.27414097 27.5704387,8.35176211 C27.5704387,8.35176211 30.2294941,6.82592511 32.4666403,9.03726872 C32.4666403,9.03726872 29.9295415,8.32876652 29.1615178,9.24482379 C29.1615178,9.24482379 32.9669644,9.50887665 33.6777391,12.2744934 C33.6777391,12.2744934 30.2966206,9.94361233 28.6974783,10.6544934 C31.214419,11.5584581 30.5713755,14.1159251 30.5713755,14.1159251 C30.5713755,14.1159251 29.5187194,11.3388106 26.0452767,10.9387665 C26.0452767,10.9387665 22.3519091,11.3721145 22.0952964,14.1157269 Z" id="Shape" fill="#9E5EDB" fill-rule="nonzero"></path>
            </g>
        </g>
    </g>
</svg>